<svg width="128" height="128" viewBox="0 0 128 128" fill="none" xmlns="http://www.w3.org/2000/svg">
<path fill-rule="evenodd" clip-rule="evenodd" d="M51.0454 84.112L75.7493 126.792C71.9413 127.501 68.016 127.869 64 127.869C48.496 127.869 34.2667 122.349 23.1893 113.169L39.9797 84.1158C41.7459 81.0594 45.6555 80.0137 48.7118 81.78C49.6804 82.3397 50.485 83.1439 51.0454 84.112ZM124.363 85.2138C118.059 103.035 104.064 117.245 86.368 123.851L69.5799 94.8037C67.8135 91.7475 68.8591 87.8379 71.9154 86.0716C72.8877 85.5097 73.9908 85.2138 75.1137 85.2138H124.363ZM39.9619 62.8364L15.3387 105.444C5.776 94.2712 0 79.7687 0 63.9343C0 60.2901 0.304 56.7204 0.890667 53.2466H34.428C37.958 53.2466 40.8196 56.1083 40.8196 59.6383C40.8196 60.7612 40.5238 61.8642 39.9619 62.8364ZM128 63.9343C128 67.5519 127.696 71.1003 127.12 74.5581H93.5382C90.0082 74.5581 87.1466 71.6964 87.1466 68.1664C87.1466 67.0439 87.4422 65.9411 88.0038 64.9691L112.613 22.3717C122.203 33.5495 128 48.0733 128 63.9343ZM52.32 1.06557C56.1067 0.367622 60.0107 0 64 0C79.4827 0 93.6853 5.50368 104.757 14.6569L87.9983 43.6548C86.2319 46.711 82.3224 47.7567 79.2661 45.9904C78.2963 45.4299 77.4907 44.6243 76.9303 43.6544L52.32 1.06557ZM52.9241 42.5909H3.65867C9.984 24.7745 23.9893 10.5811 41.696 3.9959L58.4581 33.0012C60.2244 36.0575 59.1785 39.967 56.1222 41.7333C55.15 42.2951 54.047 42.5909 52.9241 42.5909Z" fill="url(#paint0_linear_1772_165)"/>
<defs>
<linearGradient id="paint0_linear_1772_165" x1="-17.5" y1="-5.5" x2="114.5" y2="107.5" gradientUnits="userSpaceOnUse">
<stop stop-color="#249361"/>
<stop offset="1" stop-color="#3FCF8E"/>
</linearGradient>
</defs>
</svg>
