<?xml version="1.0" standalone="no"?>
<!DOCTYPE svg PUBLIC "-//W3C//DTD SVG 20010904//EN"
 "http://www.w3.org/TR/2001/REC-SVG-20010904/DTD/svg10.dtd">
<svg version="1.0" xmlns="http://www.w3.org/2000/svg"
 width="700.000000pt" height="700.000000pt" viewBox="0 0 700.000000 700.000000"
 preserveAspectRatio="xMidYMid meet">
<metadata>
Created by potrace 1.14, written by Peter Selinger 2001-2017
</metadata>
<g transform="translate(0.000000,700.000000) scale(0.100000,-0.100000)"
fill="#000000" stroke="none">
<path d="M3278 6996 c-1 -2 -41 -6 -88 -10 -47 -4 -96 -8 -110 -10 -14 -2 -47
-7 -75 -11 -101 -13 -120 -17 -128 -24 -8 -8 20 -64 98 -196 22 -38 44 -77 48
-85 4 -8 15 -28 26 -45 24 -39 266 -457 299 -515 14 -25 71 -124 127 -220 56
-96 113 -195 127 -220 14 -25 65 -112 113 -195 48 -82 98 -169 110 -192 13
-22 58 -101 101 -175 42 -73 125 -216 183 -317 121 -210 166 -265 248 -306 52
-26 68 -29 153 -30 86 0 101 3 153 30 77 38 127 96 212 244 39 67 75 129 80
139 6 9 25 44 44 77 183 318 648 1123 698 1205 l33 55 -38 33 c-133 116 -429
304 -647 412 -312 153 -696 276 -985 315 -19 3 -46 7 -60 10 -13 2 -54 7 -90
11 -36 3 -76 8 -90 11 -27 5 -536 14 -542 9z"/>
<path d="M2180 6742 c-201 -81 -463 -221 -650 -350 -510 -349 -911 -814 -1181
-1367 -38 -78 -69 -145 -69 -149 0 -4 -8 -26 -19 -49 -10 -23 -28 -68 -40 -99
l-21 -58 1363 0 c867 0 1378 4 1407 10 133 30 244 145 266 276 18 109 1 172
-88 324 -11 19 -155 269 -321 555 -165 286 -347 601 -405 700 -58 99 -112 195
-121 213 -8 17 -18 32 -21 32 -3 0 -48 -18 -100 -38z"/>
<path d="M5850 5243 c-168 -290 -309 -535 -315 -545 -5 -9 -20 -34 -31 -55
-12 -21 -161 -279 -331 -573 -389 -672 -370 -639 -389 -691 -9 -24 -16 -73
-16 -109 0 -134 75 -251 200 -312 l67 -33 957 -1 c869 -1 958 1 962 15 3 9 13
77 22 151 19 147 27 586 13 700 -4 36 -10 90 -13 120 -8 73 -12 103 -26 180
-6 36 -13 79 -16 95 -16 88 -72 298 -115 426 -98 293 -232 566 -404 824 -88
131 -237 327 -253 333 -4 1 -145 -235 -312 -525z"/>
<path d="M46 4073 c-3 -10 -8 -40 -11 -68 -4 -27 -9 -61 -11 -75 -12 -79 -19
-222 -19 -425 0 -253 5 -323 35 -525 6 -41 13 -86 15 -100 15 -106 112 -471
145 -545 5 -11 30 -74 56 -140 75 -194 189 -412 310 -596 108 -164 267 -371
277 -358 2 2 34 58 72 124 37 66 80 140 96 165 15 25 40 68 56 95 49 88 153
269 163 285 10 15 383 661 425 735 12 22 98 171 190 330 92 160 177 306 188
325 10 19 50 87 86 150 105 180 106 182 106 290 0 79 -4 103 -24 142 -37 75
-95 134 -169 170 l-67 33 -957 3 c-910 3 -957 2 -962 -15z"/>
<path d="M2415 2565 c-127 -29 -180 -80 -304 -296 -52 -90 -167 -288 -254
-439 -88 -151 -168 -291 -179 -310 -11 -19 -50 -86 -86 -149 -37 -64 -71 -124
-77 -133 -5 -10 -43 -75 -84 -145 -41 -71 -83 -144 -94 -163 -10 -19 -30 -54
-44 -77 l-24 -42 76 -60 c84 -67 234 -172 308 -217 27 -16 70 -42 95 -57 150
-89 591 -287 640 -287 7 0 20 -4 30 -10 17 -9 182 -57 272 -78 103 -24 147
-34 175 -38 17 -2 39 -5 50 -8 11 -2 45 -7 75 -11 30 -4 63 -9 73 -11 10 -1
50 -6 90 -9 39 -4 90 -8 112 -11 54 -6 406 -5 475 1 145 13 182 17 280 31 58
9 108 19 112 22 3 4 -149 275 -339 602 -190 327 -355 613 -368 635 -12 22 -61
107 -108 189 -48 82 -87 153 -87 158 0 4 -4 8 -10 8 -5 0 -10 4 -10 8 0 7 -54
105 -100 182 -59 99 -100 170 -100 173 0 3 -25 46 -55 95 -30 50 -55 92 -55
95 0 8 -130 218 -153 247 -26 32 -106 83 -157 99 -53 17 -120 19 -175 6z"/>
<path d="M3985 2317 c-42 -16 -76 -38 -117 -78 -79 -78 -101 -130 -102 -244
-1 -102 4 -119 77 -245 27 -47 60 -103 73 -126 12 -22 77 -134 143 -249 67
-114 121 -210 121 -213 0 -3 6 -13 14 -21 7 -9 27 -41 43 -71 56 -102 475
-825 483 -834 10 -10 186 62 350 143 127 64 286 157 399 235 40 28 83 58 95
66 25 17 146 112 190 150 207 176 418 401 563 600 49 68 153 220 153 224 0 2
23 41 51 87 70 116 165 309 227 462 29 71 52 130 52 133 0 2 -620 4 -1377 3
l-1378 0 -60 -22z"/>
</g>
</svg>
